PathFileType	4	(X/Y/Z)	/Users/itak/Documents/Research/Walk-IL/dataset/trc/00228_00009.trc
DataRate	CameraRate	NumFrames	NumMarkers	Units	OrigDataRate	OrigDataStartFrame	OrigNumFrames
100.000000	100.000000	4	53	mm	100.000000	385	771
Frame#	Time	RPSI			LPSI			L3			STRN			T10			C7			CLAV			RBAK			LBAK			LSHO			LUPA			LAEL			LAOL			LWTS			LWPS			LFRA			LIFD			LHPS			LHTS			RSHO			RUPA			RAEL			RAOL			RWTS			RWPS			RFRA			RIFD			RHTS			RHPS			RBHD			LFHD			RFHD			LBHD			LHIP			RHIP			RASI			LASI			LKNE			LTHI			LANK			LTIP			LTOE			LMT1			LMT5			LHEE			RKNE			RTHI			RANK			RTIP			RTOE			RMT1			RMT5			RHEE			
		X1	Y1	Z1	X2	Y2	Z2	X3	Y3	Z3	X4	Y4	Z4	X5	Y5	Z5	X6	Y6	Z6	X7	Y7	Z7	X8	Y8	Z8	X9	Y9	Z9	X10	Y10	Z10	X11	Y11	Z11	X12	Y12	Z12	X13	Y13	Z13	X14	Y14	Z14	X15	Y15	Z15	X16	Y16	Z16	X17	Y17	Z17	X18	Y18	Z18	X19	Y19	Z19	X20	Y20	Z20	X21	Y21	Z21	X22	Y22	Z22	X23	Y23	Z23	X24	Y24	Z24	X25	Y25	Z25	X26	Y26	Z26	X27	Y27	Z27	X28	Y28	Z28	X29	Y29	Z29	X30	Y30	Z30	X31	Y31	Z31	X32	Y32	Z32	X33	Y33	Z33	X34	Y34	Z34	X35	Y35	Z35	X36	Y36	Z36	X37	Y37	Z37	X38	Y38	Z38	X39	Y39	Z39	X40	Y40	Z40	X41	Y41	Z41	X42	Y42	Z42	X43	Y43	Z43	X44	Y44	Z44	X45	Y45	Z45	X46	Y46	Z46	X47	Y47	Z47	X48	Y48	Z48	X49	Y49	Z49	X50	Y50	Z50	X51	Y51	Z51	X52	Y52	Z52	X53	Y53	Z53	

386	3.85	645.6323852539062	1018.072937011719	-231.810791015625	589.3956909179688	1022.539794921875	-125.7628936767578	613.5635986328125	1109.848388671875	-164.2355804443359	383.3735656738281	1294.76611328125	-264.1789245605469	621.2381591796875	1235.41015625	-169.8073577880859	559.9903564453125	1496.139526367188	-188.8900604248047	406.1294555664062	1412.728271484375	-253.2649230957031	660.7515869140625	1360.100463867188	-228.9520263671875	538.48388671875	1458.481811523438	-79.77114868164062	434.514404296875	1462.039306640625	-60.58621978759766	436.9335327148438	1343.554931640625	23.36283493041992	418.0475158691406	1133.6669921875	44.66886901855469	500.7850036621094	1117.358276367188	22.60589408874512	345.9889526367188	903.2479858398438	-43.02283096313477	344.5658569335938	885.3126831054688	39.21567535400391	391.0524597167969	1027.059448242188	48.65520858764648	347.3912353515625	712.8023681640625	-40.19653701782227	328.4717102050781	797.557373046875	29.57304191589355	305.6739501953125	802.278564453125	-35.58358764648438	570.50244140625	1458.696411132812	-367.3375549316406	615.1583251953125	1394.594482421875	-422.2616577148438	655.8278198242188	1116.13525390625	-455.706298828125	650.7242431640625	1106.80859375	-359.7745666503906	514.7103881835938	901.8323364257812	-479.8960876464844	590.7772216796875	889.1310424804688	-517.2261962890625	638.0208129882812	1048.444091796875	-479.9196166992188	497.9784545898438	708.5081787109375	-491.7484741210938	484.599853515625	783.3678588867188	-516.263916015625	553.9259033203125	783.4155883789062	-539.7500610351562	535.3977661132812	1651.480346679688	-266.3204650878906	319.3563232421875	1695.027709960938	-212.9422149658203	339.0664672851562	1693.845336914062	-311.2013244628906	465.1073303222656	1659.12255859375	-144.4796600341797	430.6665649414062	963.7784423828125	-54.38089370727539	609.5032348632812	983.1881103515625	-372.8779907226562	507.5167236328125	1030.544799804688	-386.0157775878906	370.1241760253906	1009.909362792969	-144.0506591796875	359.3112182617188	496.9747009277344	-203.4707183837891	368.4375305175781	632.83837890625	-145.6292572021484	469.5568237304688	31.63638114929199	-241.7857666015625	411.3110961914062	266.952392578125	-214.0384063720703	276.6742553710938	39.10785293579102	-355.984375	355.4281311035156	34.48466110229492	-378.236328125	342.8052062988281	35.01962280273438	-263.5398559570312	541.1431884765625	38.55169677734375	-276.1229248046875	536.9181518554688	498.0307006835938	-435.7719421386719	549.6498413085938	768.60302734375	-426.7713012695312	863.4490356445312	185.9635314941406	-221.2426605224609	578.043212890625	392.2278442382812	-398.0810852050781	704.5303955078125	61.04367065429688	-280.0262756347656	713.9820556640625	96.96937561035156	-220.6868438720703	815.1146850585938	105.7467498779297	-280.9094848632812	864.4193115234375	235.0487213134766	-152.7000427246094	
387	3.86	640.5057373046875	1018.537841796875	-235.6812591552734	585.5126953125	1023.046752929688	-128.9347229003906	609.291748046875	1110.501220703125	-167.2597808837891	377.7753601074219	1295.338500976562	-265.2765197753906	616.3753662109375	1236.188842773438	-172.7937316894531	554.8699340820312	1496.822265625	-191.5162506103516	400.6224060058594	1413.321044921875	-254.6312561035156	655.3358764648438	1360.775024414062	-232.3284149169922	534.14208984375	1459.28662109375	-82.1507568359375	430.274169921875	1462.878540039062	-62.35836410522461	432.533935546875	1344.42822265625	21.46942901611328	412.0737915039062	1134.625732421875	42.47522354125977	494.63330078125	1117.584106445312	20.34203720092773	336.9096374511719	905.8720092773438	-46.79005432128906	335.2483825683594	887.3458251953125	35.33070755004883	383.7560119628906	1028.32470703125	45.80611419677734	335.0969543457031	715.2338256835938	-45.26640701293945	317.6741943359375	799.9622192382812	25.01029205322266	294.9320678710938	805.6004638671875	-40.10525894165039	564.0140991210938	1459.30615234375	-369.9992980957031	608.2020874023438	1395.25048828125	-425.3403930664062	648.2142333984375	1116.718505859375	-459.3202209472656	643.6576538085938	1107.233276367188	-363.39990234375	506.2717895507812	902.9909057617188	-483.2658996582031	582.106201171875	890.06982421875	-520.9418334960938	630.0908813476562	1049.1513671875	-483.5798034667969	488.5852966308594	709.823974609375	-495.7332153320312	475.5098571777344	784.7958374023438	-519.9227294921875	544.7256469726562	784.6083984375	-543.6630859375	529.4561157226562	1652.129150390625	-268.7967224121094	313.7804260253906	1695.527465820312	-213.8399353027344	332.7841186523438	1694.376953125	-312.2427978515625	460.0504760742188	1659.706420898438	-146.5098419189453	427.7230834960938	964.0675659179688	-55.3867301940918	602.2985229492188	984.0452270507812	-376.28662109375	500.2593994140625	1031.28369140625	-387.8900756835938	365.7835388183594	1010.429504394531	-144.0515899658203	358.333740234375	496.6581420898438	-203.3788757324219	366.9527893066406	632.7106323242188	-145.8949737548828	469.5543518066406	31.64860153198242	-241.876708984375	410.9102172851562	266.8291625976562	-214.1148376464844	276.7324829101562	39.11215209960938	-355.9841003417969	355.4309387207031	34.43012237548828	-378.1990966796875	342.8243408203125	35.00768280029297	-263.5079956054688	541.1764526367188	38.54570007324219	-276.18115234375	521.49658203125	500.06201171875	-442.3131103515625	539.0653076171875	770.2150268554688	-431.0602722167969	850.4075317382812	184.6268768310547	-238.09130859375	562.464111328125	393.9601440429688	-406.3575744628906	688.9144287109375	61.79485702514648	-294.7683715820312	700.196044921875	96.84497833251953	-235.2072143554688	799.8142700195312	105.6110305786133	-297.6957092285156	853.4808349609375	232.7460021972656	-168.8416442871094	
388	3.87	635.3994750976562	1019.045654296875	-239.5667572021484	581.6940307617188	1023.572326660156	-132.1157531738281	605.0591430664062	1111.14208984375	-170.2799377441406	372.1908874511719	1295.92333984375	-266.2887573242188	611.5919799804688	1236.955444335938	-175.7328643798828	549.8181762695312	1497.491821289062	-194.1156158447266	395.1737365722656	1413.926513671875	-255.9192352294922	649.9522705078125	1361.428833007812	-235.7008666992188	529.9025268554688	1460.091186523438	-84.50637817382812	426.1617126464844	1463.749267578125	-64.06596374511719	428.274658203125	1345.337524414062	19.64678764343262	406.2766418457031	1135.635009765625	40.37819290161133	488.640869140625	1117.853393554688	18.11781883239746	327.8819885253906	908.66748046875	-50.51783752441406	326.0091247558594	889.5277709960938	31.47844696044922	376.5875854492188	1029.672729492188	43.01874923706055	322.8807983398438	717.914306640625	-50.34971618652344	306.9226989746094	802.5486450195312	20.43684577941895	284.2652282714844	809.1248168945312	-44.6103515625	557.5419921875	1459.910400390625	-372.6232299804688	601.2460327148438	1395.910766601562	-428.3849792480469	640.642333984375	1117.3251953125	-462.9398193359375	636.659423828125	1107.67041015625	-367.0385437011719	497.8432922363281	904.1802368164062	-486.5888366699219	573.4224853515625	891.0256958007812	-524.632568359375	622.1865844726562	1049.875	-487.2421875	479.2520141601562	711.1622924804688	-499.5874938964844	466.4089660644531	786.252197265625	-523.4922485351562	535.5146484375	785.8245849609375	-547.512939453125	523.5364990234375	1652.791870117188	-271.2590637207031	308.2281799316406	1695.992309570312	-214.72412109375	326.5069885253906	1694.836059570312	-313.2656555175781	455.0374755859375	1660.31396484375	-148.5345611572266	424.9268798828125	964.3548583984375	-56.33023071289062	595.0672607421875	984.9556884765625	-379.6555786132812	492.9486389160156	1032.036010742188	-389.6564636230469	361.5362548828125	1010.917175292969	-143.9196014404297	357.5086975097656	496.3455200195312	-203.1735076904297	365.6614990234375	632.57275390625	-146.0473785400391	469.5496520996094	31.65854454040527	-241.9683990478516	410.5830383300781	266.7161560058594	-214.1431427001953	276.7978210449219	39.1238899230957	-355.9786682128906	355.4402160644531	34.38138961791992	-378.1597900390625	342.8370056152344	35.00217056274414	-263.4820861816406	541.211669921875	38.53036117553711	-276.2391357421875	506.1861572265625	502.2282104492188	-448.1702880859375	528.5198974609375	771.8609619140625	-435.1181030273438	836.5401611328125	182.1763000488281	-255.2537384033203	546.8403930664062	395.7378845214844	-414.1582336425781	672.4432373046875	61.89379119873047	-310.2506408691406	685.4857788085938	95.77082824707031	-250.3902435302734	783.638427734375	104.6783828735352	-315.0015563964844	841.7468872070312	229.0872192382812	-185.2428131103516	
389	3.88	630.3087158203125	1019.588928222656	-243.4707489013672	577.928955078125	1024.116577148438	-135.3148498535156	600.8543090820312	1111.7568359375	-173.3141174316406	366.6044006347656	1296.5126953125	-267.2212219238281	606.8731689453125	1237.6982421875	-178.6447906494141	544.8228149414062	1498.14013671875	-196.686767578125	389.7665100097656	1414.535034179688	-257.1340942382812	644.590576171875	1362.05419921875	-239.0689697265625	525.753173828125	1460.881713867188	-86.839111328125	422.1611633300781	1464.632202148438	-65.71025848388672	424.1591796875	1346.264282226562	17.89911460876465	400.681640625	1136.67431640625	38.4007568359375	482.8298645019531	1118.152587890625	15.94820690155029	318.9342346191406	911.6339721679688	-54.18591690063477	316.8805541992188	891.8389282226562	27.67457008361816	369.5711364746094	1031.083740234375	40.3123893737793	310.7095031738281	720.8703002929688	-55.50114440917969	296.2487487792969	805.30322265625	15.85171604156494	273.6726684570312	812.8629760742188	-49.09316253662109	551.0751342773438	1460.5	-375.2089233398438	594.2796020507812	1396.565795898438	-431.3937377929688	633.1036376953125	1117.948364257812	-466.5711975097656	629.731689453125	1108.1123046875	-370.696044921875	489.4305725097656	905.381103515625	-489.8478698730469	564.7278442382812	891.9833374023438	-528.2890625	614.3043212890625	1050.606201171875	-490.9087219238281	470.0021362304688	712.5048828125	-503.2803955078125	457.3029479980469	787.71630859375	-526.944580078125	526.294921875	787.0430297851562	-551.281005859375	517.6429443359375	1653.456909179688	-273.7015075683594	302.7069091796875	1696.429077148438	-215.5865631103516	320.2421569824219	1695.23046875	-314.2612915039062	450.0752563476562	1660.938598632812	-150.5430145263672	422.2825927734375	964.6414184570312	-57.2208251953125	587.8108520507812	985.896484375	-382.9844360351562	485.5736999511719	1032.788452148438	-391.3314208984375	357.39453125	1011.366516113281	-143.6793823242188	356.8175354003906	496.0368347167969	-202.8632965087891	364.5439758300781	632.4263916015625	-146.1004028320312	469.5431823730469	31.66717910766602	-242.0568695068359	410.3201904296875	266.6134643554688	-214.1279296875	276.8691101074219	39.14155960083008	-355.9709777832031	355.4540405273438	34.33850860595703	-378.1201171875	342.8443298339844	35.00269317626953	-263.4613952636719	541.24951171875	38.51082611083984	-276.2959594726562	491.0236206054688	504.4838562011719	-453.3422546386719	518.0368041992188	773.5217895507812	-438.9445190429688	821.8162841796875	178.6799163818359	-272.6779174804688	531.1923217773438	397.5264282226562	-421.4607543945312	655.0372924804688	61.43441390991211	-326.3288269042969	669.8006591796875	93.85532379150391	-266.105712890625	766.531982421875	103.0436477661133	-332.7377624511719	829.2212524414062	224.1264953613281	-201.8722686767578	
